<svg width="89" height="89" viewBox="0 0 89 89" fill="none" xmlns="http://www.w3.org/2000/svg">
<g clip-path="url(#clip0_2327_20692)">
<path d="M54.1656 7.05437C38.534 -2.0285 23.1296 -1.50224 15.1134 9.6668C-5.98963 38.0169 18.9967 57.7392 34.1278 64.0566C43.8645 65.9135 45.5143 56.4242 54.7889 59.3654C70.9239 70.9962 86.8221 61 85.1479 45.4698C83.6958 32 77.0202 20.3343 54.1656 7.05437Z" fill="#E3E3FD"/>
<mask id="path-2-inside-1_2327_20692" fill="white">
<rect x="25.4193" y="51.6194" width="4.78687" height="4.78687" rx="1"/>
</mask>
<rect x="25.4193" y="51.6194" width="4.78687" height="4.78687" rx="1" stroke="#000091" stroke-width="4" mask="url(#path-2-inside-1_2327_20692)"/>
<mask id="path-3-inside-2_2327_20692" fill="white">
<rect x="25.4191" y="62.0796" width="4.78687" height="4.78687" rx="1"/>
</mask>
<rect x="25.4191" y="62.0796" width="4.78687" height="4.78687" rx="1" stroke="#000091" stroke-width="4" mask="url(#path-3-inside-2_2327_20692)"/>
<mask id="path-4-inside-3_2327_20692" fill="white">
<rect x="25.4191" y="72.5398" width="4.78687" height="4.78687" rx="1"/>
</mask>
<rect x="25.4191" y="72.5398" width="4.78687" height="4.78687" rx="1" stroke="#000091" stroke-width="4" mask="url(#path-4-inside-3_2327_20692)"/>
<path d="M72.3837 34.5196V82.9919C72.3837 84.6488 71.0405 85.9919 69.3837 85.9919H21.8104C20.1536 85.9919 18.8104 84.6488 18.8104 82.992V21.4126C18.8104 19.7557 20.1536 18.4126 21.8104 18.4126H55.2262M72.3837 34.5196H58.2262C56.5694 34.5196 55.2262 33.1764 55.2262 31.5196V18.4126M72.3837 34.5196L55.2262 18.4126M25.4633 38.7214H41.9205M25.4633 45.7245H64.6803M64.6803 53.778H33.1667M33.1667 64.6327H64.6803M64.6803 74.7871H33.1667" stroke="#000091" stroke-width="2" stroke-linecap="round"/>
</g>
<defs>
<clipPath id="clip0_2327_20692">
<rect width="89" height="89" fill="white"/>
</clipPath>
</defs>
</svg>
