<svg width="89" height="89" viewBox="0 0 89 89" fill="none" xmlns="http://www.w3.org/2000/svg">
<g clip-path="url(#clip0_2327_20693)">
<path d="M54.1656 7.05437C38.534 -2.0285 23.1296 -1.50224 15.1134 9.6668C-5.98962 38.0169 18.9967 57.7392 34.1278 64.0566C43.8645 65.9135 45.5143 56.4242 54.7889 59.3654C70.9239 70.9962 86.8221 61 85.1479 45.4698C83.6958 32 77.0203 20.3343 54.1656 7.05437Z" fill="#E3E3FD"/>
<path fill-rule="evenodd" clip-rule="evenodd" d="M35.6868 20.1277C38.066 16.4161 42.0959 14 47.9993 14C54.1515 14 58.2841 16.4021 60.6722 20.1277C63.0244 23.7972 63.5899 28.6025 62.9709 33.2879C62.3505 37.9836 60.526 42.6872 57.9362 46.2394C55.3615 49.7709 51.9054 52.319 47.9993 52.319C43.9409 52.319 40.4686 49.7803 37.9367 46.2312C35.3964 42.6705 33.6955 37.9603 33.1855 33.2654C32.6763 28.5789 33.3424 23.7852 35.6868 20.1277ZM39.5006 45.0952C41.8343 48.3663 44.7961 50.3745 47.9993 50.3745C51.0348 50.3745 53.9863 48.3758 56.384 45.0871C58.7667 41.819 60.4797 37.429 61.0607 33.031C61.6431 28.6229 61.0738 24.3345 59.0542 21.1838C57.0705 18.0892 53.5942 15.9444 47.9993 15.9444C42.6896 15.9444 39.2975 18.0751 37.3049 21.1837C35.2776 24.3465 34.6222 28.6465 35.101 33.0535C35.5789 37.4523 37.1752 41.8357 39.5006 45.0952ZM39.837 53.8471L40.1666 54.2093C42.0863 56.3186 45.0121 57.4147 48 57.4147C50.9879 57.4147 53.9137 56.3186 55.8334 54.2093L56.1197 53.8946H56.5431C65.3272 53.8946 71.5121 56.9258 75.4656 62.2007C79.3825 67.4268 81 74.7121 81 83.0278V84H15V83.0278C15 74.2778 18.854 75.8576 23.6715 75.25C27.5255 76.2222 34.9152 73.3694 37.1606 69.4167C37.7281 67.0553 41.3906 65.6181 41.0146 62.6111C40.3696 59.6944 35.2336 54.8333 39.3526 53.9003L39.837 53.8471ZM56.9521 55.8414C54.6101 58.2109 51.2766 59.3592 48 59.3592C44.7442 59.3592 41.4322 58.2254 39.0926 55.8864C36.5388 56.1835 41.3305 59.8384 41.9781 62.6111C42.5895 65.229 38.7259 65.7027 38.7259 68.8588C38.1223 73.1238 30.4161 75.25 30.4161 75.25C24.635 78.1667 16.975 74.3003 16.9298 82.0556H79.0653C78.9422 74.373 77.3438 67.9302 73.9286 63.3736C70.4651 58.7524 65.0282 55.9332 56.9521 55.8414Z" fill="#000091"/>
<path fill-rule="evenodd" clip-rule="evenodd" d="M28.8653 40.7215C29.0047 41.2408 28.6967 41.7749 28.1773 41.9143C27.5529 42.0819 26.9473 42.7239 26.4389 43.7605C26.1537 44.3421 25.9378 44.9708 25.7861 45.5372C32.5479 46.0225 39.107 50.4176 40.2246 59.0696C41.8857 59.4964 42.857 61.0961 42.9846 62.54C43.0619 63.4157 42.8551 64.365 42.22 65.1086C41.7171 65.6975 41.0097 66.0827 40.1425 66.2272C38.4075 73.4974 31.366 77 24.5956 77C17.8647 77 10.866 73.5382 9.07965 66.3542C7.3927 66.258 6.23746 64.8694 6.03417 63.4353C5.91039 62.5621 6.1158 61.6105 6.76657 60.8386C7.26998 60.2416 7.98938 59.8105 8.8971 59.5821C9.10547 55.1143 11.0155 51.6314 13.827 49.2468C16.3342 47.1204 19.5272 45.8913 22.8093 45.5744C22.0387 44.7062 21.0876 44.1892 19.9191 44.2851C19.3832 44.329 18.9131 43.9302 18.8691 43.3943C18.8251 42.8583 19.224 42.3882 19.7599 42.3442C21.6762 42.187 23.1183 43.0405 24.1661 44.1769C24.3114 43.7538 24.4854 43.3212 24.6904 42.9031C25.2641 41.7334 26.2042 40.4277 27.6724 40.0335C28.1918 39.8941 28.7258 40.2021 28.8653 40.7215ZM15.0867 50.7319C12.5407 52.8913 10.8255 56.1121 10.8255 60.4019V61.2799L9.9522 61.3704C9.01061 61.468 8.50967 61.7923 8.25539 62.0939C7.99955 62.3973 7.90771 62.777 7.96228 63.162C8.07809 63.9789 8.75969 64.5671 9.63615 64.368L10.6266 64.143L10.8096 65.142C12.0022 71.6517 18.1543 75.0526 24.5956 75.0526C31.0369 75.0526 37.189 71.6517 38.3816 65.142L38.5278 64.3438H39.3394C40.1229 64.3438 40.5276 64.0917 40.7391 63.844C40.9661 63.5782 41.0863 63.1815 41.0447 62.7113C40.9557 61.7035 40.2308 60.9075 39.3394 60.9075H38.4484L38.3695 60.02C37.6143 51.525 31.1525 47.4681 24.5914 47.4394C21.1051 47.4242 17.6522 48.556 15.0867 50.7319ZM29.8584 67.7631C30.3176 68.043 30.4629 68.6421 30.183 69.1013C29.7369 69.8332 28.9325 70.3312 28.1054 70.6537C27.251 70.9869 26.2362 71.187 25.1932 71.2349C23.1456 71.3291 20.7348 70.842 19.1565 69.2884C18.7732 68.9112 18.7684 68.2947 19.1456 67.9115C19.5228 67.5283 20.1393 67.5234 20.5226 67.9006C21.5601 68.9218 23.3346 69.371 25.1037 69.2897C25.9691 69.2498 26.7705 69.0841 27.3979 68.8395C28.0526 68.5841 28.3956 68.2921 28.5202 68.0877C28.8001 67.6286 29.3992 67.4832 29.8584 67.7631Z" fill="#000091"/>
</g>
<defs>
<clipPath id="clip0_2327_20693">
<rect width="89" height="89" fill="white"/>
</clipPath>
</defs>
</svg>
